<svg width="170" height="151" viewBox="0 0 170 151" fill="none" xmlns="http://www.w3.org/2000/svg">
<path d="M157.955 125.68C157.758 125.68 157.569 125.68 157.372 125.68H51.4432C46.408 144.913 63.2698 150.119 63.2698 150.119H157.372C157.569 150.119 157.758 150.119 157.955 150.119C161.151 150.042 164.19 148.72 166.423 146.437C168.656 144.154 169.906 141.09 169.906 137.9C169.906 134.709 168.656 131.645 166.423 129.362C164.19 127.079 161.151 125.757 157.955 125.68Z" fill="white"/>
<path d="M137.275 77.9639H75.8833L63.0584 102.404H129.369H151.47" fill="white"/>
<path d="M37.2556 122.161L73.4058 55.8292H124.414L111.698 34.1745L95.5651 6.97876C94.5741 4.8909 93.0096 3.12668 91.0533 1.89126C89.0971 0.655844 86.8296 0 84.5146 0C82.1995 0 79.932 0.655844 77.9758 1.89126C76.0196 3.12668 74.455 4.8909 73.4641 6.97876L2.34432 130.596L2.38804 130.697C1.07424 132.474 0.268316 134.573 0.0562659 136.77C-0.155785 138.968 0.233989 141.182 1.184 143.175C2.13402 145.169 3.60863 146.868 5.45051 148.091C7.29239 149.314 9.43245 150.015 11.6423 150.12H47.9819C47.9819 150.12 29.0944 144.303 37.2556 122.161Z" fill="white"/>
</svg>
